<svg width="1036" height="1502" viewBox="0 0 1036 1502" fill="none" xmlns="http://www.w3.org/2000/svg">
<g opacity="0.2" filter="url(#filter0_f_175_190)">
<ellipse cx="690.5" cy="751" rx="670.5" ry="350" fill="#338AF3"/>
</g>
<path d="M211.035 987C212.53 987 213.662 987.63 214.431 988.891C215.213 990.138 215.605 991.953 215.605 994.336C215.605 996.719 215.213 998.541 214.431 999.802C213.662 1001.06 212.53 1001.69 211.035 1001.69C209.554 1001.69 208.422 1001.06 207.639 999.802C206.856 998.541 206.465 996.719 206.465 994.336C206.465 991.967 206.856 990.152 207.639 988.891C208.422 987.63 209.554 987 211.035 987ZM207.953 994.336C207.953 996.026 208.107 997.35 208.415 998.306L213.068 989.099C212.579 988.448 211.901 988.122 211.035 988.122C210.071 988.122 209.316 988.635 208.771 989.66C208.226 990.672 207.953 992.23 207.953 994.336ZM211.035 1000.55C212.013 1000.55 212.775 1000.04 213.32 999.033C213.865 998.008 214.137 996.442 214.137 994.336C214.137 992.549 213.963 991.163 213.613 990.18L208.96 999.469C209.463 1000.19 210.154 1000.55 211.035 1000.55Z" fill="url(#paint0_linear_175_190)" fill-opacity="0.6"/>
<path d="M212.293 1024.13H215.374V1025.24H207.387V1024.13H210.951V1012.46L207.555 1014.47L206.968 1013.54L211.161 1010.96H212.293V1024.13Z" fill="url(#paint1_linear_175_190)" fill-opacity="0.6"/>
<path d="M211.035 1034.5C212.53 1034.5 213.662 1035.13 214.431 1036.39C215.213 1037.64 215.605 1039.46 215.605 1041.84C215.605 1044.22 215.213 1046.04 214.431 1047.3C213.662 1048.56 212.53 1049.2 211.035 1049.2C209.554 1049.2 208.422 1048.56 207.639 1047.3C206.856 1046.04 206.465 1044.22 206.465 1041.84C206.465 1039.47 206.856 1037.65 207.639 1036.39C208.422 1035.13 209.554 1034.5 211.035 1034.5ZM207.953 1041.84C207.953 1043.53 208.107 1044.85 208.415 1045.81L213.068 1036.6C212.579 1035.95 211.901 1035.62 211.035 1035.62C210.071 1035.62 209.316 1036.14 208.771 1037.16C208.226 1038.17 207.953 1039.73 207.953 1041.84ZM211.035 1048.05C212.013 1048.05 212.775 1047.55 213.32 1046.53C213.865 1045.51 214.137 1043.94 214.137 1041.84C214.137 1040.05 213.963 1038.67 213.613 1037.68L208.96 1046.97C209.463 1047.69 210.154 1048.05 211.035 1048.05Z" fill="url(#paint2_linear_175_190)" fill-opacity="0.6"/>
<path d="M212.293 1071.64H215.374V1072.74H207.387V1071.64H210.951V1059.96L207.555 1061.97L206.968 1061.04L211.161 1058.46H212.293V1071.64Z" fill="url(#paint3_linear_175_190)" fill-opacity="0.6"/>
<path d="M212.293 1095.39H215.374V1096.49H207.387V1095.39H210.951V1083.71L207.555 1085.72L206.968 1084.79L211.161 1082.21H212.293V1095.39Z" fill="url(#paint4_linear_175_190)" fill-opacity="0.6"/>
<path d="M211.035 1105.76C212.53 1105.76 213.662 1106.39 214.431 1107.65C215.213 1108.89 215.605 1110.71 215.605 1113.09C215.605 1115.47 215.213 1117.3 214.431 1118.56C213.662 1119.82 212.53 1120.45 211.035 1120.45C209.554 1120.45 208.422 1119.82 207.639 1118.56C206.856 1117.3 206.465 1115.47 206.465 1113.09C206.465 1110.72 206.856 1108.91 207.639 1107.65C208.422 1106.39 209.554 1105.76 211.035 1105.76ZM207.953 1113.09C207.953 1114.78 208.107 1116.1 208.415 1117.06L213.068 1107.85C212.579 1107.2 211.901 1106.88 211.035 1106.88C210.071 1106.88 209.316 1107.39 208.771 1108.42C208.226 1109.43 207.953 1110.99 207.953 1113.09ZM211.035 1119.31C212.013 1119.31 212.775 1118.8 213.32 1117.79C213.865 1116.76 214.137 1115.2 214.137 1113.09C214.137 1111.3 213.963 1109.92 213.613 1108.93L208.96 1118.22C209.463 1118.95 210.154 1119.31 211.035 1119.31Z" fill="url(#paint5_linear_175_190)" fill-opacity="0.6"/>
<path d="M212.293 1142.89H215.374V1143.99H207.387V1142.89H210.951V1131.21L207.555 1133.23L206.968 1132.29L211.161 1129.71H212.293V1142.89Z" fill="url(#paint6_linear_175_190)" fill-opacity="0.6"/>
<path d="M211.035 1153.26C212.53 1153.26 213.662 1153.89 214.431 1155.15C215.213 1156.4 215.605 1158.21 215.605 1160.59C215.605 1162.98 215.213 1164.8 214.431 1166.06C213.662 1167.32 212.53 1167.95 211.035 1167.95C209.554 1167.95 208.422 1167.32 207.639 1166.06C206.856 1164.8 206.465 1162.98 206.465 1160.59C206.465 1158.22 206.856 1156.41 207.639 1155.15C208.422 1153.89 209.554 1153.26 211.035 1153.26ZM207.953 1160.59C207.953 1162.28 208.107 1163.61 208.415 1164.56L213.068 1155.36C212.579 1154.71 211.901 1154.38 211.035 1154.38C210.071 1154.38 209.316 1154.89 208.771 1155.92C208.226 1156.93 207.953 1158.49 207.953 1160.59ZM211.035 1166.81C212.013 1166.81 212.775 1166.3 213.32 1165.29C213.865 1164.27 214.137 1162.7 214.137 1160.59C214.137 1158.81 213.963 1157.42 213.613 1156.44L208.96 1165.73C209.463 1166.45 210.154 1166.81 211.035 1166.81Z" fill="url(#paint7_linear_175_190)" fill-opacity="0.6"/>
<path d="M211.035 1177.01C212.53 1177.01 213.662 1177.64 214.431 1178.9C215.213 1180.15 215.605 1181.96 215.605 1184.34C215.605 1186.73 215.213 1188.55 214.431 1189.81C213.662 1191.07 212.53 1191.7 211.035 1191.7C209.554 1191.7 208.422 1191.07 207.639 1189.81C206.856 1188.55 206.465 1186.73 206.465 1184.34C206.465 1181.98 206.856 1180.16 207.639 1178.9C208.422 1177.64 209.554 1177.01 211.035 1177.01ZM207.953 1184.34C207.953 1186.03 208.107 1187.36 208.415 1188.31L213.068 1179.11C212.579 1178.46 211.901 1178.13 211.035 1178.13C210.071 1178.13 209.316 1178.64 208.771 1179.67C208.226 1180.68 207.953 1182.24 207.953 1184.34ZM211.035 1190.56C212.013 1190.56 212.775 1190.05 213.32 1189.04C213.865 1188.02 214.137 1186.45 214.137 1184.34C214.137 1182.56 213.963 1181.17 213.613 1180.19L208.96 1189.48C209.463 1190.2 210.154 1190.56 211.035 1190.56Z" fill="url(#paint8_linear_175_190)" fill-opacity="0.6"/>
<path d="M212.293 1214.14H215.374V1215.24H207.387V1214.14H210.951V1202.46L207.555 1204.48L206.968 1203.54L211.161 1200.97H212.293V1214.14Z" fill="url(#paint9_linear_175_190)" fill-opacity="0.6"/>
<path d="M211.035 1224.51C212.53 1224.51 213.662 1225.14 214.431 1226.4C215.213 1227.65 215.605 1229.46 215.605 1231.85C215.605 1234.23 215.213 1236.05 214.431 1237.31C213.662 1238.57 212.53 1239.2 211.035 1239.2C209.554 1239.2 208.422 1238.57 207.639 1237.31C206.856 1236.05 206.465 1234.23 206.465 1231.85C206.465 1229.48 206.856 1227.66 207.639 1226.4C208.422 1225.14 209.554 1224.51 211.035 1224.51ZM207.953 1231.85C207.953 1233.54 208.107 1234.86 208.415 1235.82L213.068 1226.61C212.579 1225.96 211.901 1225.63 211.035 1225.63C210.071 1225.63 209.316 1226.15 208.771 1227.17C208.226 1228.18 207.953 1229.74 207.953 1231.85ZM211.035 1238.06C212.013 1238.06 212.775 1237.55 213.32 1236.54C213.865 1235.52 214.137 1233.95 214.137 1231.85C214.137 1230.06 213.963 1228.67 213.613 1227.69L208.96 1236.98C209.463 1237.7 210.154 1238.06 211.035 1238.06Z" fill="url(#paint10_linear_175_190)" fill-opacity="0.6"/>
<path d="M212.293 1261.65H215.374V1262.75H207.387V1261.65H210.951V1249.97L207.555 1251.98L206.968 1251.05L211.161 1248.47H212.293V1261.65Z" fill="url(#paint11_linear_175_190)" fill-opacity="0.6"/>
<path d="M212.293 1285.4H215.374V1286.5H207.387V1285.4H210.951V1273.72L207.555 1275.73L206.968 1274.8L211.161 1272.22H212.293V1285.4Z" fill="url(#paint12_linear_175_190)" fill-opacity="0.6"/>
<path d="M249.965 1034.5C251.46 1034.5 252.592 1035.13 253.361 1036.39C254.144 1037.64 254.535 1039.46 254.535 1041.84C254.535 1044.22 254.144 1046.04 253.361 1047.3C252.592 1048.56 251.46 1049.2 249.965 1049.2C248.484 1049.2 247.352 1048.56 246.569 1047.3C245.787 1046.04 245.395 1044.22 245.395 1041.84C245.395 1039.47 245.787 1037.65 246.569 1036.39C247.352 1035.13 248.484 1034.5 249.965 1034.5ZM246.884 1041.84C246.884 1043.53 247.037 1044.85 247.345 1045.81L251.998 1036.6C251.509 1035.95 250.832 1035.62 249.965 1035.62C249.001 1035.62 248.246 1036.14 247.701 1037.16C247.156 1038.17 246.884 1039.73 246.884 1041.84ZM249.965 1048.05C250.943 1048.05 251.705 1047.55 252.25 1046.53C252.795 1045.51 253.068 1043.94 253.068 1041.84C253.068 1040.05 252.893 1038.67 252.543 1037.68L247.89 1046.97C248.393 1047.69 249.085 1048.05 249.965 1048.05Z" fill="url(#paint13_linear_175_190)" fill-opacity="0.6"/>
<path d="M251.223 1071.64H254.304V1072.74H246.318V1071.64H249.881V1059.96L246.485 1061.97L245.898 1061.04L250.091 1058.46H251.223V1071.64Z" fill="url(#paint14_linear_175_190)" fill-opacity="0.6"/>
<path d="M249.965 1082C251.46 1082 252.592 1082.63 253.361 1083.9C254.144 1085.14 254.535 1086.96 254.535 1089.34C254.535 1091.72 254.144 1093.55 253.361 1094.81C252.592 1096.07 251.46 1096.7 249.965 1096.7C248.484 1096.7 247.352 1096.07 246.569 1094.81C245.787 1093.55 245.395 1091.72 245.395 1089.34C245.395 1086.97 245.787 1085.16 246.569 1083.9C247.352 1082.63 248.484 1082 249.965 1082ZM246.884 1089.34C246.884 1091.03 247.037 1092.35 247.345 1093.31L251.998 1084.1C251.509 1083.45 250.832 1083.13 249.965 1083.13C249.001 1083.13 248.246 1083.64 247.701 1084.66C247.156 1085.68 246.884 1087.23 246.884 1089.34ZM249.965 1095.55C250.943 1095.55 251.705 1095.05 252.25 1094.04C252.795 1093.01 253.068 1091.45 253.068 1089.34C253.068 1087.55 252.893 1086.17 252.543 1085.18L247.89 1094.47C248.393 1095.19 249.085 1095.55 249.965 1095.55Z" fill="url(#paint15_linear_175_190)" fill-opacity="0.6"/>
<path d="M249.965 1105.76C251.46 1105.76 252.592 1106.39 253.361 1107.65C254.144 1108.89 254.535 1110.71 254.535 1113.09C254.535 1115.47 254.144 1117.3 253.361 1118.56C252.592 1119.82 251.46 1120.45 249.965 1120.45C248.484 1120.45 247.352 1119.82 246.569 1118.56C245.787 1117.3 245.395 1115.47 245.395 1113.09C245.395 1110.72 245.787 1108.91 246.569 1107.65C247.352 1106.39 248.484 1105.76 249.965 1105.76ZM246.884 1113.09C246.884 1114.78 247.037 1116.1 247.345 1117.06L251.998 1107.85C251.509 1107.2 250.832 1106.88 249.965 1106.88C249.001 1106.88 248.246 1107.39 247.701 1108.42C247.156 1109.43 246.884 1110.99 246.884 1113.09ZM249.965 1119.31C250.943 1119.31 251.705 1118.8 252.25 1117.79C252.795 1116.76 253.068 1115.2 253.068 1113.09C253.068 1111.3 252.893 1109.92 252.543 1108.93L247.89 1118.22C248.393 1118.95 249.085 1119.31 249.965 1119.31Z" fill="url(#paint16_linear_175_190)" fill-opacity="0.6"/>
<path d="M251.223 1142.89H254.304V1143.99H246.318V1142.89H249.881V1131.21L246.485 1133.23L245.898 1132.29L250.091 1129.71H251.223V1142.89Z" fill="url(#paint17_linear_175_190)" fill-opacity="0.6"/>
<path d="M249.965 1153.26C251.46 1153.26 252.592 1153.89 253.361 1155.15C254.144 1156.4 254.535 1158.21 254.535 1160.59C254.535 1162.98 254.144 1164.8 253.361 1166.06C252.592 1167.32 251.46 1167.95 249.965 1167.95C248.484 1167.95 247.352 1167.32 246.569 1166.06C245.787 1164.8 245.395 1162.98 245.395 1160.59C245.395 1158.22 245.787 1156.41 246.569 1155.15C247.352 1153.89 248.484 1153.26 249.965 1153.26ZM246.884 1160.59C246.884 1162.28 247.037 1163.61 247.345 1164.56L251.998 1155.36C251.509 1154.71 250.832 1154.38 249.965 1154.38C249.001 1154.38 248.246 1154.89 247.701 1155.92C247.156 1156.93 246.884 1158.49 246.884 1160.59ZM249.965 1166.81C250.943 1166.81 251.705 1166.3 252.25 1165.29C252.795 1164.27 253.068 1162.7 253.068 1160.59C253.068 1158.81 252.893 1157.42 252.543 1156.44L247.89 1165.73C248.393 1166.45 249.085 1166.81 249.965 1166.81Z" fill="url(#paint18_linear_175_190)" fill-opacity="0.6"/>
<path d="M251.223 1190.39H254.304V1191.49H246.318V1190.39H249.881V1178.71L246.485 1180.73L245.898 1179.79L250.091 1177.22H251.223V1190.39Z" fill="url(#paint19_linear_175_190)" fill-opacity="0.6"/>
<path d="M249.965 1200.76C251.46 1200.76 252.592 1201.39 253.361 1202.65C254.144 1203.9 254.535 1205.71 254.535 1208.1C254.535 1210.48 254.144 1212.3 253.361 1213.56C252.592 1214.82 251.46 1215.45 249.965 1215.45C248.484 1215.45 247.352 1214.82 246.569 1213.56C245.787 1212.3 245.395 1210.48 245.395 1208.1C245.395 1205.73 245.787 1203.91 246.569 1202.65C247.352 1201.39 248.484 1200.76 249.965 1200.76ZM246.884 1208.1C246.884 1209.79 247.037 1211.11 247.345 1212.07L251.998 1202.86C251.509 1202.21 250.832 1201.88 249.965 1201.88C249.001 1201.88 248.246 1202.39 247.701 1203.42C247.156 1204.43 246.884 1205.99 246.884 1208.1ZM249.965 1214.31C250.943 1214.31 251.705 1213.8 252.25 1212.79C252.795 1211.77 253.068 1210.2 253.068 1208.1C253.068 1206.31 252.893 1204.92 252.543 1203.94L247.89 1213.23C248.393 1213.95 249.085 1214.31 249.965 1214.31Z" fill="url(#paint20_linear_175_190)" fill-opacity="0.6"/>
<path d="M249.965 1224.51C251.46 1224.51 252.592 1225.14 253.361 1226.4C254.144 1227.65 254.535 1229.46 254.535 1231.85C254.535 1234.23 254.144 1236.05 253.361 1237.31C252.592 1238.57 251.46 1239.2 249.965 1239.2C248.484 1239.2 247.352 1238.57 246.569 1237.31C245.787 1236.05 245.395 1234.23 245.395 1231.85C245.395 1229.48 245.787 1227.66 246.569 1226.4C247.352 1225.14 248.484 1224.51 249.965 1224.51ZM246.884 1231.85C246.884 1233.54 247.037 1234.86 247.345 1235.82L251.998 1226.61C251.509 1225.96 250.832 1225.63 249.965 1225.63C249.001 1225.63 248.246 1226.15 247.701 1227.17C247.156 1228.18 246.884 1229.74 246.884 1231.85ZM249.965 1238.06C250.943 1238.06 251.705 1237.55 252.25 1236.54C252.795 1235.52 253.068 1233.95 253.068 1231.85C253.068 1230.06 252.893 1228.67 252.543 1227.69L247.89 1236.98C248.393 1237.7 249.085 1238.06 249.965 1238.06Z" fill="url(#paint21_linear_175_190)" fill-opacity="0.6"/>
<path d="M251.223 1261.65H254.304V1262.75H246.318V1261.65H249.881V1249.97L246.485 1251.98L245.898 1251.05L250.091 1248.47H251.223V1261.65Z" fill="url(#paint22_linear_175_190)" fill-opacity="0.6"/>
<path d="M249.965 1272.01C251.46 1272.01 252.592 1272.64 253.361 1273.9C254.144 1275.15 254.535 1276.97 254.535 1279.35C254.535 1281.73 254.144 1283.55 253.361 1284.81C252.592 1286.08 251.46 1286.71 249.965 1286.71C248.484 1286.71 247.352 1286.08 246.569 1284.81C245.787 1283.55 245.395 1281.73 245.395 1279.35C245.395 1276.98 245.787 1275.16 246.569 1273.9C247.352 1272.64 248.484 1272.01 249.965 1272.01ZM246.884 1279.35C246.884 1281.04 247.037 1282.36 247.345 1283.32L251.998 1274.11C251.509 1273.46 250.832 1273.13 249.965 1273.13C249.001 1273.13 248.246 1273.65 247.701 1274.67C247.156 1275.68 246.884 1277.24 246.884 1279.35ZM249.965 1285.56C250.943 1285.56 251.705 1285.06 252.25 1284.05C252.795 1283.02 253.068 1281.45 253.068 1279.35C253.068 1277.56 252.893 1276.18 252.543 1275.19L247.89 1284.48C248.393 1285.2 249.085 1285.56 249.965 1285.56Z" fill="url(#paint23_linear_175_190)" fill-opacity="0.6"/>
<path d="M251.223 1309.15H254.304V1310.25H246.318V1309.15H249.881V1297.47L246.485 1299.48L245.898 1298.55L250.091 1295.97H251.223V1309.15Z" fill="url(#paint24_linear_175_190)" fill-opacity="0.6"/>
<path d="M251.223 1332.9H254.304V1334H246.318V1332.9H249.881V1321.22L246.485 1323.23L245.898 1322.3L250.091 1319.72H251.223V1332.9Z" fill="url(#paint25_linear_175_190)" fill-opacity="0.6"/>
<path d="M191.57 1058.25C193.065 1058.25 194.197 1058.88 194.966 1060.14C195.748 1061.39 196.14 1063.21 196.14 1065.59C196.14 1067.97 195.748 1069.79 194.966 1071.05C194.197 1072.32 193.065 1072.95 191.57 1072.95C190.088 1072.95 188.956 1072.32 188.174 1071.05C187.391 1069.79 187 1067.97 187 1065.59C187 1063.22 187.391 1061.41 188.174 1060.14C188.956 1058.88 190.088 1058.25 191.57 1058.25ZM188.488 1065.59C188.488 1067.28 188.642 1068.6 188.95 1069.56L193.603 1060.35C193.114 1059.7 192.436 1059.38 191.57 1059.38C190.606 1059.38 189.851 1059.89 189.306 1060.91C188.761 1061.92 188.488 1063.48 188.488 1065.59ZM191.57 1071.8C192.548 1071.8 193.31 1071.3 193.855 1070.29C194.4 1069.26 194.672 1067.7 194.672 1065.59C194.672 1063.8 194.498 1062.42 194.148 1061.43L189.495 1070.72C189.998 1071.44 190.689 1071.8 191.57 1071.8Z" fill="url(#paint26_linear_175_190)" fill-opacity="0.6"/>
<path d="M191.57 1082C193.065 1082 194.197 1082.63 194.966 1083.9C195.748 1085.14 196.14 1086.96 196.14 1089.34C196.14 1091.72 195.748 1093.55 194.966 1094.81C194.197 1096.07 193.065 1096.7 191.57 1096.7C190.088 1096.7 188.956 1096.07 188.174 1094.81C187.391 1093.55 187 1091.72 187 1089.34C187 1086.97 187.391 1085.16 188.174 1083.9C188.956 1082.63 190.088 1082 191.57 1082ZM188.488 1089.34C188.488 1091.03 188.642 1092.35 188.95 1093.31L193.603 1084.1C193.114 1083.45 192.436 1083.13 191.57 1083.13C190.606 1083.13 189.851 1083.64 189.306 1084.66C188.761 1085.68 188.488 1087.23 188.488 1089.34ZM191.57 1095.55C192.548 1095.55 193.31 1095.05 193.855 1094.04C194.4 1093.01 194.672 1091.45 194.672 1089.34C194.672 1087.55 194.498 1086.17 194.148 1085.18L189.495 1094.47C189.998 1095.19 190.689 1095.55 191.57 1095.55Z" fill="url(#paint27_linear_175_190)" fill-opacity="0.6"/>
<path d="M192.828 1119.14H195.909V1120.24H187.922V1119.14H191.486V1107.46L188.09 1109.48L187.503 1108.54L191.696 1105.96H192.828V1119.14Z" fill="url(#paint28_linear_175_190)" fill-opacity="0.6"/>
<path d="M191.57 1129.51C193.065 1129.51 194.197 1130.14 194.966 1131.4C195.748 1132.64 196.14 1134.46 196.14 1136.84C196.14 1139.23 195.748 1141.05 194.966 1142.31C194.197 1143.57 193.065 1144.2 191.57 1144.2C190.088 1144.2 188.956 1143.57 188.174 1142.31C187.391 1141.05 187 1139.23 187 1136.84C187 1134.47 187.391 1132.66 188.174 1131.4C188.956 1130.14 190.088 1129.51 191.57 1129.51ZM188.488 1136.84C188.488 1138.53 188.642 1139.86 188.95 1140.81L193.603 1131.61C193.114 1130.95 192.436 1130.63 191.57 1130.63C190.606 1130.63 189.851 1131.14 189.306 1132.17C188.761 1133.18 188.488 1134.74 188.488 1136.84ZM191.57 1143.06C192.548 1143.06 193.31 1142.55 193.855 1141.54C194.4 1140.51 194.672 1138.95 194.672 1136.84C194.672 1135.06 194.498 1133.67 194.148 1132.69L189.495 1141.98C189.998 1142.7 190.689 1143.06 191.57 1143.06Z" fill="url(#paint29_linear_175_190)" fill-opacity="0.6"/>
<path d="M192.828 1166.64H195.909V1167.74H187.922V1166.64H191.486V1154.96L188.09 1156.98L187.503 1156.04L191.696 1153.47H192.828V1166.64Z" fill="url(#paint30_linear_175_190)" fill-opacity="0.6"/>
<path d="M192.828 1190.39H195.909V1191.49H187.922V1190.39H191.486V1178.71L188.09 1180.73L187.503 1179.79L191.696 1177.22H192.828V1190.39Z" fill="url(#paint31_linear_175_190)" fill-opacity="0.6"/>
<path d="M231.758 1024.13H234.839V1025.24H226.853V1024.13H230.416V1012.46L227.02 1014.47L226.433 1013.54L230.626 1010.96H231.758V1024.13Z" fill="url(#paint32_linear_175_190)" fill-opacity="0.6"/>
<path d="M230.5 1034.5C231.995 1034.5 233.127 1035.13 233.896 1036.39C234.679 1037.64 235.07 1039.46 235.07 1041.84C235.07 1044.22 234.679 1046.04 233.896 1047.3C233.127 1048.56 231.995 1049.2 230.5 1049.2C229.019 1049.2 227.887 1048.56 227.104 1047.3C226.321 1046.04 225.93 1044.22 225.93 1041.84C225.93 1039.47 226.321 1037.65 227.104 1036.39C227.887 1035.13 229.019 1034.5 230.5 1034.5ZM227.419 1041.84C227.419 1043.53 227.572 1044.85 227.88 1045.81L232.533 1036.6C232.044 1035.95 231.366 1035.62 230.5 1035.62C229.536 1035.62 228.781 1036.14 228.236 1037.16C227.691 1038.17 227.419 1039.73 227.419 1041.84ZM230.5 1048.05C231.478 1048.05 232.24 1047.55 232.785 1046.53C233.33 1045.51 233.602 1043.94 233.602 1041.84C233.602 1040.05 233.428 1038.67 233.078 1037.68L228.425 1046.97C228.928 1047.69 229.62 1048.05 230.5 1048.05Z" fill="url(#paint33_linear_175_190)" fill-opacity="0.6"/>
<path d="M231.758 1071.64H234.839V1072.74H226.853V1071.64H230.416V1059.96L227.02 1061.97L226.433 1061.04L230.626 1058.46H231.758V1071.64Z" fill="url(#paint34_linear_175_190)" fill-opacity="0.6"/>
<path d="M231.758 1095.39H234.839V1096.49H226.853V1095.39H230.416V1083.71L227.02 1085.72L226.433 1084.79L230.626 1082.21H231.758V1095.39Z" fill="url(#paint35_linear_175_190)" fill-opacity="0.6"/>
<path d="M230.5 1105.76C231.995 1105.76 233.127 1106.39 233.896 1107.65C234.679 1108.89 235.07 1110.71 235.07 1113.09C235.07 1115.47 234.679 1117.3 233.896 1118.56C233.127 1119.82 231.995 1120.45 230.5 1120.45C229.019 1120.45 227.887 1119.82 227.104 1118.56C226.321 1117.3 225.93 1115.47 225.93 1113.09C225.93 1110.72 226.321 1108.91 227.104 1107.65C227.887 1106.39 229.019 1105.76 230.5 1105.76ZM227.419 1113.09C227.419 1114.78 227.572 1116.1 227.88 1117.06L232.533 1107.85C232.044 1107.2 231.366 1106.88 230.5 1106.88C229.536 1106.88 228.781 1107.39 228.236 1108.42C227.691 1109.43 227.419 1110.99 227.419 1113.09ZM230.5 1119.31C231.478 1119.31 232.24 1118.8 232.785 1117.79C233.33 1116.76 233.602 1115.2 233.602 1113.09C233.602 1111.3 233.428 1109.92 233.078 1108.93L228.425 1118.22C228.928 1118.95 229.62 1119.31 230.5 1119.31Z" fill="url(#paint36_linear_175_190)" fill-opacity="0.6"/>
<path d="M231.758 1142.89H234.839V1143.99H226.853V1142.89H230.416V1131.21L227.02 1133.23L226.433 1132.29L230.626 1129.71H231.758V1142.89Z" fill="url(#paint37_linear_175_190)" fill-opacity="0.6"/>
<path d="M231.758 1166.64H234.839V1167.74H226.853V1166.64H230.416V1154.96L227.02 1156.98L226.433 1156.04L230.626 1153.47H231.758V1166.64Z" fill="url(#paint38_linear_175_190)" fill-opacity="0.6"/>
<path d="M230.5 1177.01C231.995 1177.01 233.127 1177.64 233.896 1178.9C234.679 1180.15 235.07 1181.96 235.07 1184.34C235.07 1186.73 234.679 1188.55 233.896 1189.81C233.127 1191.07 231.995 1191.7 230.5 1191.7C229.019 1191.7 227.887 1191.07 227.104 1189.81C226.321 1188.55 225.93 1186.73 225.93 1184.34C225.93 1181.98 226.321 1180.16 227.104 1178.9C227.887 1177.64 229.019 1177.01 230.5 1177.01ZM227.419 1184.34C227.419 1186.03 227.572 1187.36 227.88 1188.31L232.533 1179.11C232.044 1178.46 231.366 1178.13 230.5 1178.13C229.536 1178.13 228.781 1178.64 228.236 1179.67C227.691 1180.68 227.419 1182.24 227.419 1184.34ZM230.5 1190.56C231.478 1190.56 232.24 1190.05 232.785 1189.04C233.33 1188.02 233.602 1186.45 233.602 1184.34C233.602 1182.56 233.428 1181.17 233.078 1180.19L228.425 1189.48C228.928 1190.2 229.62 1190.56 230.5 1190.56Z" fill="url(#paint39_linear_175_190)" fill-opacity="0.6"/>
<path d="M231.758 1214.14H234.839V1215.24H226.853V1214.14H230.416V1202.46L227.02 1204.48L226.433 1203.54L230.626 1200.97H231.758V1214.14Z" fill="url(#paint40_linear_175_190)" fill-opacity="0.6"/>
<path d="M230.5 1224.51C231.995 1224.51 233.127 1225.14 233.896 1226.4C234.679 1227.65 235.07 1229.46 235.07 1231.85C235.07 1234.23 234.679 1236.05 233.896 1237.31C233.127 1238.57 231.995 1239.2 230.5 1239.2C229.019 1239.2 227.887 1238.57 227.104 1237.31C226.321 1236.05 225.93 1234.23 225.93 1231.85C225.93 1229.48 226.321 1227.66 227.104 1226.4C227.887 1225.14 229.019 1224.51 230.5 1224.51ZM227.419 1231.85C227.419 1233.54 227.572 1234.86 227.88 1235.82L232.533 1226.61C232.044 1225.96 231.366 1225.63 230.5 1225.63C229.536 1225.63 228.781 1226.15 228.236 1227.17C227.691 1228.18 227.419 1229.74 227.419 1231.85ZM230.5 1238.06C231.478 1238.06 232.24 1237.55 232.785 1236.54C233.33 1235.52 233.602 1233.95 233.602 1231.85C233.602 1230.06 233.428 1228.67 233.078 1227.69L228.425 1236.98C228.928 1237.7 229.62 1238.06 230.5 1238.06Z" fill="url(#paint41_linear_175_190)" fill-opacity="0.6"/>
<path d="M269.43 1010.75C270.926 1010.75 272.057 1011.38 272.826 1012.64C273.609 1013.89 274 1015.7 274 1018.09C274 1020.47 273.609 1022.29 272.826 1023.55C272.057 1024.81 270.926 1025.44 269.43 1025.44C267.949 1025.44 266.817 1024.81 266.034 1023.55C265.252 1022.29 264.86 1020.47 264.86 1018.09C264.86 1015.72 265.252 1013.9 266.034 1012.64C266.817 1011.38 267.949 1010.75 269.43 1010.75ZM266.349 1018.09C266.349 1019.78 266.502 1021.1 266.81 1022.06L271.464 1012.85C270.974 1012.2 270.297 1011.87 269.43 1011.87C268.466 1011.87 267.711 1012.39 267.166 1013.41C266.621 1014.42 266.349 1015.98 266.349 1018.09ZM269.43 1024.3C270.408 1024.3 271.17 1023.8 271.715 1022.78C272.26 1021.76 272.533 1020.19 272.533 1018.09C272.533 1016.3 272.358 1014.91 272.009 1013.93L267.355 1023.22C267.858 1023.94 268.55 1024.3 269.43 1024.3Z" fill="url(#paint42_linear_175_190)" fill-opacity="0.6"/>
<path d="M270.688 1047.89H273.769V1048.99H265.783V1047.89H269.346V1036.21L265.95 1038.22L265.363 1037.29L269.556 1034.71H270.688V1047.89Z" fill="url(#paint43_linear_175_190)" fill-opacity="0.6"/>
<path d="M270.688 1071.64H273.769V1072.74H265.783V1071.64H269.346V1059.96L265.95 1061.97L265.363 1061.04L269.556 1058.46H270.688V1071.64Z" fill="url(#paint44_linear_175_190)" fill-opacity="0.6"/>
<path d="M269.43 1082C270.926 1082 272.057 1082.63 272.826 1083.9C273.609 1085.14 274 1086.96 274 1089.34C274 1091.72 273.609 1093.55 272.826 1094.81C272.057 1096.07 270.926 1096.7 269.43 1096.7C267.949 1096.7 266.817 1096.07 266.034 1094.81C265.252 1093.55 264.86 1091.72 264.86 1089.34C264.86 1086.97 265.252 1085.16 266.034 1083.9C266.817 1082.63 267.949 1082 269.43 1082ZM266.349 1089.34C266.349 1091.03 266.502 1092.35 266.81 1093.31L271.464 1084.1C270.974 1083.45 270.297 1083.13 269.43 1083.13C268.466 1083.13 267.711 1083.64 267.166 1084.66C266.621 1085.68 266.349 1087.23 266.349 1089.34ZM269.43 1095.55C270.408 1095.55 271.17 1095.05 271.715 1094.04C272.26 1093.01 272.533 1091.45 272.533 1089.34C272.533 1087.55 272.358 1086.17 272.009 1085.18L267.355 1094.47C267.858 1095.19 268.55 1095.55 269.43 1095.55Z" fill="url(#paint45_linear_175_190)" fill-opacity="0.6"/>
<path d="M269.43 1105.76C270.926 1105.76 272.057 1106.39 272.826 1107.65C273.609 1108.89 274 1110.71 274 1113.09C274 1115.47 273.609 1117.3 272.826 1118.56C272.057 1119.82 270.926 1120.45 269.43 1120.45C267.949 1120.45 266.817 1119.82 266.034 1118.56C265.252 1117.3 264.86 1115.47 264.86 1113.09C264.86 1110.72 265.252 1108.91 266.034 1107.65C266.817 1106.39 267.949 1105.76 269.43 1105.76ZM266.349 1113.09C266.349 1114.78 266.502 1116.1 266.81 1117.06L271.464 1107.85C270.974 1107.2 270.297 1106.88 269.43 1106.88C268.466 1106.88 267.711 1107.39 267.166 1108.42C266.621 1109.43 266.349 1110.99 266.349 1113.09ZM269.43 1119.31C270.408 1119.31 271.17 1118.8 271.715 1117.79C272.26 1116.76 272.533 1115.2 272.533 1113.09C272.533 1111.3 272.358 1109.92 272.009 1108.93L267.355 1118.22C267.858 1118.95 268.55 1119.31 269.43 1119.31Z" fill="url(#paint46_linear_175_190)" fill-opacity="0.6"/>
<defs>
<filter id="filter0_f_175_190" x="-380.19" y="0.809998" width="2141.38" height="1500.38" filterUnits="userSpaceOnUse" color-interpolation-filters="sRGB">
<feFlood flood-opacity="0" result="BackgroundImageFix"/>
<feBlend mode="normal" in="SourceGraphic" in2="BackgroundImageFix" result="shape"/>
<feGaussianBlur stdDeviation="200.095" result="effect1_foregroundBlur_175_190"/>
</filter>
<linearGradient id="paint0_linear_175_190" x1="230.5" y1="987" x2="230.5" y2="1298.38" gradientUnits="userSpaceOnUse">
<stop stop-color="#F7DD43"/>
<stop offset="1" stop-color="#F7DD43" stop-opacity="0"/>
</linearGradient>
<linearGradient id="paint1_linear_175_190" x1="230.5" y1="987" x2="230.5" y2="1298.38" gradientUnits="userSpaceOnUse">
<stop stop-color="#F7DD43"/>
<stop offset="1" stop-color="#F7DD43" stop-opacity="0"/>
</linearGradient>
<linearGradient id="paint2_linear_175_190" x1="230.5" y1="987" x2="230.5" y2="1298.38" gradientUnits="userSpaceOnUse">
<stop stop-color="#F7DD43"/>
<stop offset="1" stop-color="#F7DD43" stop-opacity="0"/>
</linearGradient>
<linearGradient id="paint3_linear_175_190" x1="230.5" y1="987" x2="230.5" y2="1298.38" gradientUnits="userSpaceOnUse">
<stop stop-color="#F7DD43"/>
<stop offset="1" stop-color="#F7DD43" stop-opacity="0"/>
</linearGradient>
<linearGradient id="paint4_linear_175_190" x1="230.5" y1="987" x2="230.5" y2="1298.38" gradientUnits="userSpaceOnUse">
<stop stop-color="#F7DD43"/>
<stop offset="1" stop-color="#F7DD43" stop-opacity="0"/>
</linearGradient>
<linearGradient id="paint5_linear_175_190" x1="230.5" y1="987" x2="230.5" y2="1298.38" gradientUnits="userSpaceOnUse">
<stop stop-color="#F7DD43"/>
<stop offset="1" stop-color="#F7DD43" stop-opacity="0"/>
</linearGradient>
<linearGradient id="paint6_linear_175_190" x1="230.5" y1="987" x2="230.5" y2="1298.38" gradientUnits="userSpaceOnUse">
<stop stop-color="#F7DD43"/>
<stop offset="1" stop-color="#F7DD43" stop-opacity="0"/>
</linearGradient>
<linearGradient id="paint7_linear_175_190" x1="230.5" y1="987" x2="230.5" y2="1298.38" gradientUnits="userSpaceOnUse">
<stop stop-color="#F7DD43"/>
<stop offset="1" stop-color="#F7DD43" stop-opacity="0"/>
</linearGradient>
<linearGradient id="paint8_linear_175_190" x1="230.5" y1="987" x2="230.5" y2="1298.38" gradientUnits="userSpaceOnUse">
<stop stop-color="#F7DD43"/>
<stop offset="1" stop-color="#F7DD43" stop-opacity="0"/>
</linearGradient>
<linearGradient id="paint9_linear_175_190" x1="230.5" y1="987" x2="230.5" y2="1298.38" gradientUnits="userSpaceOnUse">
<stop stop-color="#F7DD43"/>
<stop offset="1" stop-color="#F7DD43" stop-opacity="0"/>
</linearGradient>
<linearGradient id="paint10_linear_175_190" x1="230.5" y1="987" x2="230.5" y2="1298.38" gradientUnits="userSpaceOnUse">
<stop stop-color="#F7DD43"/>
<stop offset="1" stop-color="#F7DD43" stop-opacity="0"/>
</linearGradient>
<linearGradient id="paint11_linear_175_190" x1="230.5" y1="987" x2="230.5" y2="1298.38" gradientUnits="userSpaceOnUse">
<stop stop-color="#F7DD43"/>
<stop offset="1" stop-color="#F7DD43" stop-opacity="0"/>
</linearGradient>
<linearGradient id="paint12_linear_175_190" x1="230.5" y1="987" x2="230.5" y2="1298.38" gradientUnits="userSpaceOnUse">
<stop stop-color="#F7DD43"/>
<stop offset="1" stop-color="#F7DD43" stop-opacity="0"/>
</linearGradient>
<linearGradient id="paint13_linear_175_190" x1="230.5" y1="987" x2="230.5" y2="1298.38" gradientUnits="userSpaceOnUse">
<stop stop-color="#F7DD43"/>
<stop offset="1" stop-color="#F7DD43" stop-opacity="0"/>
</linearGradient>
<linearGradient id="paint14_linear_175_190" x1="230.5" y1="987" x2="230.5" y2="1298.38" gradientUnits="userSpaceOnUse">
<stop stop-color="#F7DD43"/>
<stop offset="1" stop-color="#F7DD43" stop-opacity="0"/>
</linearGradient>
<linearGradient id="paint15_linear_175_190" x1="230.5" y1="987" x2="230.5" y2="1298.38" gradientUnits="userSpaceOnUse">
<stop stop-color="#F7DD43"/>
<stop offset="1" stop-color="#F7DD43" stop-opacity="0"/>
</linearGradient>
<linearGradient id="paint16_linear_175_190" x1="230.5" y1="987" x2="230.5" y2="1298.38" gradientUnits="userSpaceOnUse">
<stop stop-color="#F7DD43"/>
<stop offset="1" stop-color="#F7DD43" stop-opacity="0"/>
</linearGradient>
<linearGradient id="paint17_linear_175_190" x1="230.5" y1="987" x2="230.5" y2="1298.38" gradientUnits="userSpaceOnUse">
<stop stop-color="#F7DD43"/>
<stop offset="1" stop-color="#F7DD43" stop-opacity="0"/>
</linearGradient>
<linearGradient id="paint18_linear_175_190" x1="230.5" y1="987" x2="230.5" y2="1298.38" gradientUnits="userSpaceOnUse">
<stop stop-color="#F7DD43"/>
<stop offset="1" stop-color="#F7DD43" stop-opacity="0"/>
</linearGradient>
<linearGradient id="paint19_linear_175_190" x1="230.5" y1="987" x2="230.5" y2="1298.38" gradientUnits="userSpaceOnUse">
<stop stop-color="#F7DD43"/>
<stop offset="1" stop-color="#F7DD43" stop-opacity="0"/>
</linearGradient>
<linearGradient id="paint20_linear_175_190" x1="230.5" y1="987" x2="230.5" y2="1298.38" gradientUnits="userSpaceOnUse">
<stop stop-color="#F7DD43"/>
<stop offset="1" stop-color="#F7DD43" stop-opacity="0"/>
</linearGradient>
<linearGradient id="paint21_linear_175_190" x1="230.5" y1="987" x2="230.5" y2="1298.38" gradientUnits="userSpaceOnUse">
<stop stop-color="#F7DD43"/>
<stop offset="1" stop-color="#F7DD43" stop-opacity="0"/>
</linearGradient>
<linearGradient id="paint22_linear_175_190" x1="230.5" y1="987" x2="230.5" y2="1298.38" gradientUnits="userSpaceOnUse">
<stop stop-color="#F7DD43"/>
<stop offset="1" stop-color="#F7DD43" stop-opacity="0"/>
</linearGradient>
<linearGradient id="paint23_linear_175_190" x1="230.5" y1="987" x2="230.5" y2="1298.38" gradientUnits="userSpaceOnUse">
<stop stop-color="#F7DD43"/>
<stop offset="1" stop-color="#F7DD43" stop-opacity="0"/>
</linearGradient>
<linearGradient id="paint24_linear_175_190" x1="230.5" y1="987" x2="230.5" y2="1298.38" gradientUnits="userSpaceOnUse">
<stop stop-color="#F7DD43"/>
<stop offset="1" stop-color="#F7DD43" stop-opacity="0"/>
</linearGradient>
<linearGradient id="paint25_linear_175_190" x1="230.5" y1="987" x2="230.5" y2="1298.38" gradientUnits="userSpaceOnUse">
<stop stop-color="#F7DD43"/>
<stop offset="1" stop-color="#F7DD43" stop-opacity="0"/>
</linearGradient>
<linearGradient id="paint26_linear_175_190" x1="230.5" y1="987" x2="230.5" y2="1298.38" gradientUnits="userSpaceOnUse">
<stop stop-color="#F7DD43"/>
<stop offset="1" stop-color="#F7DD43" stop-opacity="0"/>
</linearGradient>
<linearGradient id="paint27_linear_175_190" x1="230.5" y1="987" x2="230.5" y2="1298.38" gradientUnits="userSpaceOnUse">
<stop stop-color="#F7DD43"/>
<stop offset="1" stop-color="#F7DD43" stop-opacity="0"/>
</linearGradient>
<linearGradient id="paint28_linear_175_190" x1="230.5" y1="987" x2="230.5" y2="1298.38" gradientUnits="userSpaceOnUse">
<stop stop-color="#F7DD43"/>
<stop offset="1" stop-color="#F7DD43" stop-opacity="0"/>
</linearGradient>
<linearGradient id="paint29_linear_175_190" x1="230.5" y1="987" x2="230.5" y2="1298.38" gradientUnits="userSpaceOnUse">
<stop stop-color="#F7DD43"/>
<stop offset="1" stop-color="#F7DD43" stop-opacity="0"/>
</linearGradient>
<linearGradient id="paint30_linear_175_190" x1="230.5" y1="987" x2="230.5" y2="1298.38" gradientUnits="userSpaceOnUse">
<stop stop-color="#F7DD43"/>
<stop offset="1" stop-color="#F7DD43" stop-opacity="0"/>
</linearGradient>
<linearGradient id="paint31_linear_175_190" x1="230.5" y1="987" x2="230.5" y2="1298.38" gradientUnits="userSpaceOnUse">
<stop stop-color="#F7DD43"/>
<stop offset="1" stop-color="#F7DD43" stop-opacity="0"/>
</linearGradient>
<linearGradient id="paint32_linear_175_190" x1="230.5" y1="987" x2="230.5" y2="1298.38" gradientUnits="userSpaceOnUse">
<stop stop-color="#F7DD43"/>
<stop offset="1" stop-color="#F7DD43" stop-opacity="0"/>
</linearGradient>
<linearGradient id="paint33_linear_175_190" x1="230.5" y1="987" x2="230.5" y2="1298.38" gradientUnits="userSpaceOnUse">
<stop stop-color="#F7DD43"/>
<stop offset="1" stop-color="#F7DD43" stop-opacity="0"/>
</linearGradient>
<linearGradient id="paint34_linear_175_190" x1="230.5" y1="987" x2="230.5" y2="1298.38" gradientUnits="userSpaceOnUse">
<stop stop-color="#F7DD43"/>
<stop offset="1" stop-color="#F7DD43" stop-opacity="0"/>
</linearGradient>
<linearGradient id="paint35_linear_175_190" x1="230.5" y1="987" x2="230.5" y2="1298.38" gradientUnits="userSpaceOnUse">
<stop stop-color="#F7DD43"/>
<stop offset="1" stop-color="#F7DD43" stop-opacity="0"/>
</linearGradient>
<linearGradient id="paint36_linear_175_190" x1="230.5" y1="987" x2="230.5" y2="1298.38" gradientUnits="userSpaceOnUse">
<stop stop-color="#F7DD43"/>
<stop offset="1" stop-color="#F7DD43" stop-opacity="0"/>
</linearGradient>
<linearGradient id="paint37_linear_175_190" x1="230.5" y1="987" x2="230.5" y2="1298.38" gradientUnits="userSpaceOnUse">
<stop stop-color="#F7DD43"/>
<stop offset="1" stop-color="#F7DD43" stop-opacity="0"/>
</linearGradient>
<linearGradient id="paint38_linear_175_190" x1="230.5" y1="987" x2="230.5" y2="1298.38" gradientUnits="userSpaceOnUse">
<stop stop-color="#F7DD43"/>
<stop offset="1" stop-color="#F7DD43" stop-opacity="0"/>
</linearGradient>
<linearGradient id="paint39_linear_175_190" x1="230.5" y1="987" x2="230.5" y2="1298.38" gradientUnits="userSpaceOnUse">
<stop stop-color="#F7DD43"/>
<stop offset="1" stop-color="#F7DD43" stop-opacity="0"/>
</linearGradient>
<linearGradient id="paint40_linear_175_190" x1="230.5" y1="987" x2="230.5" y2="1298.38" gradientUnits="userSpaceOnUse">
<stop stop-color="#F7DD43"/>
<stop offset="1" stop-color="#F7DD43" stop-opacity="0"/>
</linearGradient>
<linearGradient id="paint41_linear_175_190" x1="230.5" y1="987" x2="230.5" y2="1298.38" gradientUnits="userSpaceOnUse">
<stop stop-color="#F7DD43"/>
<stop offset="1" stop-color="#F7DD43" stop-opacity="0"/>
</linearGradient>
<linearGradient id="paint42_linear_175_190" x1="230.5" y1="987" x2="230.5" y2="1298.38" gradientUnits="userSpaceOnUse">
<stop stop-color="#F7DD43"/>
<stop offset="1" stop-color="#F7DD43" stop-opacity="0"/>
</linearGradient>
<linearGradient id="paint43_linear_175_190" x1="230.5" y1="987" x2="230.5" y2="1298.38" gradientUnits="userSpaceOnUse">
<stop stop-color="#F7DD43"/>
<stop offset="1" stop-color="#F7DD43" stop-opacity="0"/>
</linearGradient>
<linearGradient id="paint44_linear_175_190" x1="230.5" y1="987" x2="230.5" y2="1298.38" gradientUnits="userSpaceOnUse">
<stop stop-color="#F7DD43"/>
<stop offset="1" stop-color="#F7DD43" stop-opacity="0"/>
</linearGradient>
<linearGradient id="paint45_linear_175_190" x1="230.5" y1="987" x2="230.5" y2="1298.38" gradientUnits="userSpaceOnUse">
<stop stop-color="#F7DD43"/>
<stop offset="1" stop-color="#F7DD43" stop-opacity="0"/>
</linearGradient>
<linearGradient id="paint46_linear_175_190" x1="230.5" y1="987" x2="230.5" y2="1298.38" gradientUnits="userSpaceOnUse">
<stop stop-color="#F7DD43"/>
<stop offset="1" stop-color="#F7DD43" stop-opacity="0"/>
</linearGradient>
</defs>
</svg>
